<?xml version="1.0" encoding="UTF-8"?>
<svg version="1.1" xmlns="http://www.w3.org/2000/svg" width="1254" height="1254">
<path d="M0 0 C413.82 0 827.64 0 1254 0 C1254 413.82 1254 827.64 1254 1254 C840.18 1254 426.36 1254 0 1254 C0 840.18 0 426.36 0 0 Z " fill="#20A24D" transform="translate(0,0)"/>
<path d="M0 0 C413.82 0 827.64 0 1254 0 C1254 413.82 1254 827.64 1254 1254 C840.18 1254 426.36 1254 0 1254 C0 840.18 0 426.36 0 0 Z M417 146 C414.10414362 146.32537712 411.21399999 146.6114574 408.3125 146.875 C401.03203307 147.58865029 393.98580185 148.62058543 386.8347168 150.18432617 C384.40465625 150.70121879 381.96828171 151.18990459 379.52490234 151.63964844 C370.50876241 153.30230419 362.03214376 155.74526466 353.375 158.8125 C352.1684375 159.22564453 350.961875 159.63878906 349.71875 160.06445312 C341.56727092 162.90870577 333.77013125 166.24316521 326 170 C324.86594727 170.5424939 324.86594727 170.5424939 323.70898438 171.09594727 C291.04349 186.86258891 257.97466348 209.00871681 234.55078125 237.140625 C232.86822488 239.15799737 231.09406308 241.06967096 229.3125 243 C214.38006376 259.80982184 202.75881726 278.85631677 192.28344727 298.65087891 C191.36884934 300.32488714 190.40894277 301.97447285 189.41967773 303.60546875 C187.74271063 306.43396288 186.64204099 309.29295348 185.5 312.375 C184.24862174 315.73607366 182.97507004 319.05781056 181.5546875 322.3515625 C175.10945415 337.47680861 171.15199119 352.90057592 168 369 C167.64407297 370.79053252 167.28732885 372.58090286 166.9296875 374.37109375 C166.77612793 375.14380615 166.62256836 375.91651855 166.46435547 376.71264648 C166.1438729 378.29130113 165.81141241 379.86755496 165.46923828 381.44165039 C162.89850269 393.50805532 162.85416028 405.53562714 162.86628723 417.81639099 C162.86441673 419.61829379 162.86211508 421.42019618 162.85942191 423.22209793 C162.8533268 428.15252679 162.8534348 433.08293863 162.85461628 438.01337039 C162.85482088 443.33944703 162.84929588 448.66551829 162.84455872 453.99159241 C162.83626364 464.41962071 162.83350437 474.84764336 162.83294634 485.27567469 C162.83247054 493.75731668 162.83041259 502.23895682 162.82724571 510.72059822 C162.81844146 534.79213372 162.81382586 558.86366476 162.81457619 582.93520188 C162.81461614 584.23203203 162.8146561 585.52886219 162.81469727 586.86499023 C162.81473815 588.16341278 162.81477903 589.46183532 162.81482115 590.79960401 C162.81522732 611.82747817 162.80566434 632.8553344 162.7915589 653.88320338 C162.7771744 675.49852667 162.77028989 697.11384123 162.77115268 718.72916943 C162.77148398 730.8547215 162.76876632 742.98025479 162.75797462 755.10580254 C162.7488422 765.43287208 162.74671674 775.75991433 162.75348405 786.08698618 C162.75673574 791.34917685 162.75685517 796.61131522 162.7481308 801.87350082 C162.74020445 806.70436091 162.74175904 811.53512777 162.75041493 816.36598576 C162.75193656 818.10018748 162.75018517 819.83439637 162.74455485 821.56858962 C162.69113923 839.21011594 164.70633283 856.52908833 167 874 C167.66 874 168.32 874 169 874 C168.97679687 874.68707031 168.95359375 875.37414062 168.9296875 876.08203125 C168.91164062 876.98308594 168.89359375 877.88414062 168.875 878.8125 C168.85179687 879.70582031 168.82859375 880.59914063 168.8046875 881.51953125 C168.81714173 884.25402714 168.81714173 884.25402714 171 887 C171.47182381 889.2181473 171.87910824 891.45026187 172.25 893.6875 C173.55443729 900.93457199 175.87040444 907.52297437 178.59765625 914.34375 C179.9542499 917.88071841 181.01622502 921.3473235 182 925 C182.66 925 183.32 925 184 925 C184.165 926.155 184.33 927.31 184.5 928.5 C186.21441015 936.20277236 190.34067108 943.07572213 194 950 C194.69818464 951.33840191 195.39610719 952.67694058 196.09375 954.015625 C207.44185004 975.66192915 221.46112458 995.44435291 238.3203125 1013.16796875 C240.70152965 1015.68456121 242.98564919 1018.25381569 245.25 1020.875 C248.25243444 1024.27281676 251.42046278 1027.27184989 254.8828125 1030.1953125 C257.23003244 1032.19607932 259.48403646 1034.28278446 261.75 1036.375 C274.69697195 1048.0213629 289.54096032 1057.39302069 304.390625 1066.40625 C306.28571479 1067.56372999 308.15233771 1068.76822514 310 1070 C311.32 1070 312.64 1070 314 1070 C314 1070.66 314 1071.32 314 1072 C315.98 1072.33 317.96 1072.66 320 1073 C320 1073.66 320 1074.32 320 1075 C326.18129033 1077.86736662 332.38028683 1080.61129516 338.7265625 1083.09375 C340.71401878 1083.88600061 342.67264722 1084.74980738 344.625 1085.625 C350.95314836 1088.20313452 357.23034979 1089.27468033 364 1090 C364 1090.66 364 1091.32 364 1092 C370.75762553 1094.19544977 377.54771885 1095.83134669 384.5078125 1097.25390625 C386.82284666 1097.74850527 389.12419632 1098.31252651 391.40498161 1098.9465847 C414.3668953 1104.67420665 439.51281085 1103.44187821 462.99916101 1103.39217401 C467.84592893 1103.38526944 472.6926671 1103.39592012 477.53942871 1103.40411377 C486.99098921 1103.41733463 496.44247756 1103.41462582 505.89404069 1103.40587585 C513.58851684 1103.39905245 521.28297301 1103.39820249 528.97745132 1103.4014473 C530.07984271 1103.401907 531.1822341 1103.40236669 532.31803129 1103.40284032 C534.55875587 1103.40379967 536.79948045 1103.40477231 539.04020502 1103.4057581 C559.96834138 1103.41427808 580.89643808 1103.40453185 601.82456793 1103.388357 C619.7100508 1103.37496069 637.59547521 1103.37728289 655.48095703 1103.39111328 C676.33999119 1103.4072359 697.19899073 1103.41345052 718.05803025 1103.40427649 C720.29032587 1103.40332102 722.52262151 1103.40237791 724.75491714 1103.4014473 C725.85273705 1103.40098447 726.95055696 1103.40052164 728.08164414 1103.40004479 C735.74938303 1103.39747457 743.41709962 1103.40178301 751.08483505 1103.40888596 C760.45445388 1103.41737608 769.8239975 1103.41486561 779.19360791 1103.39904372 C783.9571995 1103.39125997 788.7206666 1103.38789574 793.48425674 1103.39799118 C834.41004691 1103.47733671 871.02641195 1099.28393807 910 1086 C911.29019043 1085.56421631 911.29019043 1085.56421631 912.60644531 1085.11962891 C920.7181954 1082.3510608 928.16612598 1079.08944846 935.44921875 1074.515625 C937.93124845 1073.04085084 940.3227251 1072.06937129 943 1071 C945.9661768 1069.51198803 948.88836081 1067.9436916 951.8125 1066.375 C952.60076172 1065.95476563 953.38902344 1065.53453125 954.20117188 1065.1015625 C956.13535326 1064.0699991 958.06823983 1063.03608828 960 1062 C960 1061.34 960 1060.68 960 1060 C960.55171875 1059.90332031 961.1034375 1059.80664062 961.671875 1059.70703125 C975.91675262 1055.3809862 992.71352706 1039.53066221 1003 1029 C1004.29289833 1027.70435812 1005.58730313 1026.41021861 1006.8828125 1025.1171875 C1007.57503906 1024.42496094 1008.26726563 1023.73273437 1008.98046875 1023.01953125 C1019 1013 1019 1013 1020.72607422 1011.39892578 C1022.22443399 1010.06888699 1022.22443399 1010.06888699 1022 1008 C1022.66 1008 1023.32 1008 1024 1008 C1025.48022421 1006.38951606 1026.88467453 1004.70897882 1028.25 1003 C1028.99765625 1002.071875 1029.7453125 1001.14375 1030.515625 1000.1875 C1035.64833153 993.65543804 1040.54421555 986.9446343 1045.375 980.1875 C1045.92027344 979.43791016 1046.46554687 978.68832031 1047.02734375 977.91601562 C1047.54167969 977.19478516 1048.05601562 976.47355469 1048.5859375 975.73046875 C1049.0504834 975.08489014 1049.5150293 974.43931152 1049.99365234 973.77416992 C1051.24668898 971.90504405 1051.24668898 971.90504405 1051 969 C1051.66 969 1052.32 969 1053 969 C1061.04968678 957.14794258 1061.04968678 957.14794258 1065 944 C1065.66 944 1066.32 944 1067 944 C1067.25168945 943.32533691 1067.50337891 942.65067383 1067.76269531 941.95556641 C1068.92392942 938.84492784 1070.08695452 935.73496173 1071.25 932.625 C1071.64574219 931.56410156 1072.04148437 930.50320313 1072.44921875 929.41015625 C1074.29761592 924.4709966 1076.16960839 919.55015853 1078.1640625 914.66796875 C1079.75896407 910.71414091 1081.01556392 906.8036011 1082.125 902.6875 C1083.83087444 896.39268233 1083.83087444 896.39268233 1085.01953125 893.6328125 C1086.41022831 889.89843076 1086.9496127 886.11451864 1087.5625 882.1875 C1087.68818359 881.41857422 1087.81386719 880.64964844 1087.94335938 879.85742188 C1088.53660335 876.17682445 1089.06204185 872.50708758 1089.46484375 868.80078125 C1090 865 1090 865 1090.96410054 862.33748233 C1092.25902655 858.16546291 1092.70508343 854.1366485 1093.10954762 849.79950142 C1093.19382407 848.91886369 1093.27810052 848.03822596 1093.3649308 847.13090224 C1094.16610919 838.14997546 1094.27680224 829.21818198 1094.24723816 820.20797729 C1094.2488317 818.41022687 1094.25130064 816.61247705 1094.25455457 814.81472886 C1094.26089072 809.93826716 1094.25496102 805.06189013 1094.24679029 800.1854341 C1094.24015305 794.90280528 1094.24517452 789.620185 1094.24867249 784.33755493 C1094.2536886 774.01905907 1094.24810704 763.70059551 1094.23882218 753.38210367 C1094.22839864 741.36366834 1094.22850936 729.34523984 1094.22899476 717.32680084 C1094.22949422 695.894781 1094.22036202 674.46277615 1094.20581055 653.03076172 C1094.19169366 632.22802457 1094.18464121 611.4253006 1094.18530273 590.62255859 C1094.18536267 588.69656337 1094.18536267 588.69656337 1094.18542381 586.73165916 C1094.18546417 585.44988434 1094.18550452 584.16810953 1094.1855461 582.84749305 C1094.18623503 559.1496163 1094.1803553 535.45174515 1094.17139288 511.75387021 C1094.16837327 503.37084448 1094.16731298 494.98781977 1094.16686058 486.60479355 C1094.16618002 476.40698755 1094.16173669 466.20919099 1094.15252777 456.011389 C1094.14789809 450.80606399 1094.14486863 445.6007511 1094.14612198 440.39542389 C1094.147212 435.63805237 1094.1437296 430.88070772 1094.13647345 426.12334181 C1094.13465107 424.39578721 1094.13453855 422.66822985 1094.13624074 420.94067512 C1094.1382877 418.6060621 1094.13427409 416.2715387 1094.12863445 413.93693352 C1094.12793003 412.63622095 1094.1272256 411.33550838 1094.12649983 409.99538028 C1094.20773668 407.07457684 1094.20773668 407.07457684 1093 405 C1092.83581706 403.16619431 1092.7251992 401.3274785 1092.640625 399.48828125 C1091.53648703 378.86409252 1088.30308513 359.59062818 1081.68115234 340.02148438 C1080.92401725 337.77450282 1080.18978488 335.52067089 1079.45703125 333.265625 C1078.93038933 331.6560202 1078.40305831 330.04664068 1077.875 328.4375 C1077.51257202 327.32991333 1077.51257202 327.32991333 1077.14282227 326.19995117 C1075.02955233 319.85435357 1072.49327119 313.83327486 1069.4375 307.875 C1067.77661798 304.63602136 1066.31143606 301.3964381 1065 298 C1064.34 298 1063.68 298 1063 298 C1062.92007813 297.33355469 1062.84015625 296.66710937 1062.7578125 295.98046875 C1061.75090231 292.02030136 1059.90822294 288.83486739 1057.875 285.3125 C1057.46830078 284.60061523 1057.06160156 283.88873047 1056.64257812 283.15527344 C1053.39406773 277.5379513 1049.88379268 272.20075909 1046 267 C1045.28972656 266.03578125 1044.57945312 265.0715625 1043.84765625 264.078125 C1036.53752646 254.2313177 1028.98016527 244.81956918 1020.61328125 235.859375 C1018.80590247 233.88179463 1017.08608028 231.9133346 1015.39453125 229.84375 C1013.46827842 227.55612837 1011.65418745 225.65768994 1009.375 223.75 C1006.13215363 220.99116055 1002.99370635 218.14856238 999.875 215.25 C981.97806385 198.98005805 961.47664048 185.36718629 939.71704102 174.82568359 C936.27440784 173.15775688 932.93743711 171.39993156 929.625 169.484375 C925.03750507 166.91240491 920.35598822 165.15380936 915.375 163.5 C914.4989209 163.20303223 913.6228418 162.90606445 912.72021484 162.60009766 C910.9584768 162.00384184 909.19563861 161.41082536 907.43164062 160.82128906 C905.32515994 160.1098231 903.2314335 159.37312944 901.140625 158.6171875 C891.14476928 155.08531848 880.96700122 152.74171456 870.60498047 150.55224609 C868.26557229 150.05630033 865.93173051 149.53983193 863.59765625 149.01953125 C854.30203377 147.02865248 845.45286871 146.66060179 836 147 C836 146.34 836 145.68 836 145 C782.91070913 144.97713352 729.82141877 144.95950172 676.73212395 144.94893467 C670.47083002 144.9476839 664.2095361 144.94638958 657.94824219 144.94506836 C656.70168045 144.94480605 655.45511871 144.94454374 654.17078237 144.94427348 C633.96100356 144.93991685 613.75122758 144.93202934 593.54145046 144.9228472 C572.81927358 144.91351047 552.09709819 144.90794435 531.3749193 144.90591151 C518.57828741 144.90453632 505.78166352 144.90018595 492.98503409 144.89208353 C484.22142177 144.88681584 475.45781361 144.88519576 466.69419982 144.88649862 C461.6307803 144.88714196 456.5673748 144.8861249 451.50395775 144.88079453 C446.87532113 144.87595717 442.24670807 144.8756636 437.61807041 144.87910111 C435.93702259 144.87952646 434.25597334 144.87823356 432.57492836 144.87511682 C430.30276917 144.87114658 428.03069684 144.87324058 425.7585392 144.87695217 C424.49255162 144.87657245 423.22656404 144.87619273 421.9222132 144.8758015 C419.06366924 144.79781955 419.06366924 144.79781955 417 146 Z " fill="#FDFDFD" transform="translate(0,0)"/>
<path d="M0 0 C8.33519358 5.68308653 11.58515341 18.5884887 15.0078125 27.67578125 C19.84031035 40.4328997 25.13231061 53.01825585 30.52734375 65.546875 C32.95714551 71.2443412 35.26764955 76.99081558 37.59570312 82.73046875 C45.19802921 101.39424383 51.60765939 110.69868542 70.58569336 118.74804688 C75.70664147 120.87528896 80.85093856 122.94196874 86 125 C87.50177625 125.60951009 89.00313779 126.22004393 90.50390625 126.83203125 C96.72967837 129.36050279 102.97971128 131.77355995 109.33984375 133.9453125 C112 135 112 135 115.47265625 136.7734375 C121.31214919 139.74355396 127.42067868 142.07224056 133.5 144.5 C153.09353508 152.32462173 153.09353508 152.32462173 157.0625 155.8125 C158.54664466 159.27550421 158.08095625 161.43920295 157 165 C152.79094224 168.86778281 147.4007886 170.59806463 142.14453125 172.7109375 C139.21531323 173.91173495 136.36254277 175.21200949 133.5 176.5625 C129.76214568 178.28683967 126.04777648 179.69168385 122.125 180.9375 C118.02738849 182.25477536 114.19532464 183.76935288 110.3125 185.625 C102.77924803 189.20922279 95.04029167 192.2427668 87.28442383 195.30908203 C61.33052753 204.06373037 61.33052753 204.06373037 43.25 223.125 C42.47629502 225.07408954 41.72775735 227.03329242 41 229 C40.06438879 231.31326483 39.12674388 233.62570774 38.1875 235.9375 C37.41018123 237.89391784 36.63771847 239.85221552 35.86523438 241.81054688 C24.52891704 270.4968036 24.52891704 270.4968036 20.0625 280.25 C17.30920147 286.37217194 15.06599261 292.700984 12.7409668 298.99462891 C8.78097932 309.71203818 8.78097932 309.71203818 7 313 C6.34 313 5.68 313 5 313 C5 314.65 5 316.3 5 318 C4.34 318 3.68 318 3 318 C2.731875 318.61875 2.46375 319.2375 2.1875 319.875 C1 322 1 322 -2 324 C-5.74688874 324.57017872 -7.40874797 324.40378188 -10.5625 322.25 C-14.3340277 317.93796673 -16.02021895 312.283356 -18 307 C-18.46277344 305.76507812 -18.92554688 304.53015625 -19.40234375 303.2578125 C-20.14715919 301.26490098 -20.89021026 299.27140224 -21.62866211 297.27612305 C-23.74586888 291.58524852 -26.04707704 285.98164579 -28.38525391 280.37866211 C-30.70938673 274.77973203 -32.87399658 269.13152724 -34.95898438 263.43945312 C-36.9714532 257.96715251 -39.08242856 252.56545199 -41.875 247.4375 C-44.36239749 242.57706812 -46.01675838 237.43541032 -47.75390625 232.26953125 C-48.9092984 229.23798507 -50.29417704 226.7443543 -52 224 C-52.37125 222.906875 -52.7425 221.81375 -53.125 220.6875 C-57.04041867 211.45112775 -67.31022316 206.72100701 -76 203 C-78.76354187 201.9202555 -81.53796964 200.9053041 -84.33984375 199.9296875 C-89.90900624 197.9833429 -95.40695541 195.88816585 -100.625 193.125 C-105.03269115 190.85969259 -109.65361713 189.20563251 -114.2956543 187.49707031 C-120.04470324 185.37535827 -125.74734663 183.14978696 -131.4375 180.875 C-132.2531543 180.55047852 -133.06880859 180.22595703 -133.90917969 179.89160156 C-141.88750208 176.69312881 -149.71763489 173.21710537 -157.4375 169.4375 C-158.35305664 169.00147461 -158.35305664 169.00147461 -159.28710938 168.55664062 C-162.50796534 166.96929485 -163.96018026 166.05972961 -166 163 C-166.1875 159.6875 -166.1875 159.6875 -165 156 C-159.99871649 151.02230745 -153.59029525 149.01468939 -146.9921875 147 C-143.27080437 145.75630016 -139.90655294 144.08638507 -136.44921875 142.24609375 C-131.1075345 139.52839475 -125.50702285 137.38743122 -119.9375 135.1875 C-114.83670965 133.16477279 -109.78266494 131.06191161 -104.75 128.875 C-100.68170494 127.11252874 -96.62162112 125.46535067 -92.4375 124 C-87.17459824 122.14250526 -82.18396826 119.82869194 -77.14453125 117.4375 C-74.33453113 116.15292852 -71.52600973 115.05651341 -68.625 114 C-61.46299764 111.18635621 -56.84407191 106.65320138 -53 100 C-52.505 98.515 -52.505 98.515 -52 97 C-51.34 97 -50.68 97 -50 97 C-49.896875 96.34 -49.79375 95.68 -49.6875 95 C-48.8134703 91.1860522 -47.43392399 87.6296201 -46 84 C-45.71125 83.25878906 -45.4225 82.51757812 -45.125 81.75390625 C-43.27727919 77.06531469 -41.32510913 72.43260548 -39.3125 67.8125 C-36.12278921 60.42921005 -33.21198255 52.94501955 -30.33520508 45.43481445 C-28.10853476 39.66623591 -25.67377457 34.04440642 -23.08227539 28.4309082 C-21.84430544 25.65029308 -20.87240546 22.85250862 -20 19.9375 C-12.75075845 -2.54099495 -12.75075845 -2.54099495 0 0 Z " fill="#FCFDFC" transform="translate(580,460)"/>
<path d="M0 0 C1.98 0 3.96 0 6 0 C6.95338574 1.90677147 7.90611068 3.81387625 8.85546875 5.72265625 C9.57460093 7.15355749 10.30479917 8.57900512 11.05078125 9.99609375 C14.21463753 16.06727742 17 22.07570395 17 29 C17.66 29 18.32 29 19 29 C19.24121582 29.66008057 19.48243164 30.32016113 19.73095703 31.00024414 C20.84695257 34.02691107 21.98572699 37.04452197 23.125 40.0625 C23.69347656 41.62000977 23.69347656 41.62000977 24.2734375 43.20898438 C26.91808302 50.15117885 29.66915438 56.40149263 36.24609375 60.34765625 C36.96925781 60.58355469 37.69242188 60.81945312 38.4375 61.0625 C39.29214844 61.36285156 40.14679688 61.66320312 41.02734375 61.97265625 C42.00832031 62.31167969 42.98929688 62.65070312 44 63 C46.50487867 63.98954841 49.00403186 64.98863533 51.5 66 C52.80442113 66.52280051 54.10910397 67.04494857 55.4140625 67.56640625 C56.59742188 68.03949219 57.78078125 68.51257813 59 69 C60.28003906 69.50853516 60.28003906 69.50853516 61.5859375 70.02734375 C67.09079527 72.21613532 72.57857779 74.44686126 78.0625 76.6875 C79.2079126 77.15240845 79.2079126 77.15240845 80.37646484 77.62670898 C85.88512091 79.88512091 85.88512091 79.88512091 87 81 C87.3125 83.375 87.3125 83.375 87 86 C83.8902361 88.9286126 80.44339202 90.04119461 76.4375 91.375 C71.06553959 93.2105186 65.93009759 95.32917868 60.79296875 97.7421875 C56.58062379 99.63921558 52.26333389 101.24050806 47.9453125 102.87890625 C35.83520192 107.21334122 35.83520192 107.21334122 27 116 C25.92961339 118.88214755 24.9924733 121.78730795 24.078125 124.72265625 C22.6501549 129.06347841 20.86946789 133.21707706 19.05078125 137.40625 C18.15828795 139.60928178 17.49752944 141.68184084 17 144 C16.34 144 15.68 144 15 144 C14.87625 144.86625 14.7525 145.7325 14.625 146.625 C14.01941879 149.89513853 13.11693965 152.87256899 12 156 C11.34 156 10.68 156 10 156 C9.9175 156.86625 9.835 157.7325 9.75 158.625 C8.89392254 162.47734858 7.32631454 164.848219 5 168 C1.89347355 167.6641593 0.39585697 167.40950721 -1.8125 165.125 C-3 163 -3 163 -3 160 C-3.66 160 -4.32 160 -5 160 C-5.29132813 159.06800781 -5.58265625 158.13601563 -5.8828125 157.17578125 C-7.97141307 150.63714045 -10.18106366 144.37765639 -13.1875 138.1875 C-15.75361931 132.85736016 -17.23320252 127.8567463 -18 122 C-18.66 122 -19.32 122 -20 122 C-20.23074219 121.39671875 -20.46148438 120.7934375 -20.69921875 120.171875 C-21.02535156 119.37265625 -21.35148438 118.5734375 -21.6875 117.75 C-22.00074219 116.96109375 -22.31398438 116.1721875 -22.63671875 115.359375 C-26.50733483 108.66065835 -33.96743363 106.8056263 -40.8125 104.1875 C-43.06978379 103.30536183 -45.3262954 102.42124522 -47.58203125 101.53515625 C-49.22872803 100.88957764 -49.22872803 100.88957764 -50.90869141 100.23095703 C-57.3512236 97.66554498 -63.67154823 94.83194441 -70 92 C-71.43472656 91.38318359 -71.43472656 91.38318359 -72.8984375 90.75390625 C-78.77770083 88.22229917 -78.77770083 88.22229917 -81 86 C-81.17578125 83.12890625 -81.17578125 83.12890625 -80 80 C-77.27442651 78.1213606 -74.28315921 77.07098121 -71.1875 75.9375 C-69.4504993 75.25916973 -67.71352012 74.58078432 -65.9765625 73.90234375 C-65.12610352 73.57991699 -64.27564453 73.25749023 -63.39941406 72.92529297 C-60.24347729 71.70825996 -57.16067511 70.35689307 -54.0625 69 C-50.5399696 67.45920973 -48.95726531 67 -45 67 C-45 66.34 -45 65.68 -45 65 C-43.98679687 64.61328125 -42.97359375 64.2265625 -41.9296875 63.828125 C-40.57797833 63.30246032 -39.226424 62.77639737 -37.875 62.25 C-36.87726562 61.87101563 -36.87726562 61.87101563 -35.859375 61.484375 C-30.25993701 59.28851697 -25.30272735 57.32464458 -22.2421875 51.86328125 C-21.79101562 50.69152344 -21.33984375 49.51976562 -20.875 48.3125 C-20.37550436 47.05318525 -19.87550464 45.79407032 -19.375 44.53515625 C-18.92125 43.36855469 -18.4675 42.20195313 -18 41 C-17.30361631 39.41137471 -16.5972247 37.82704535 -15.875 36.25 C-12.99211795 29.79329723 -10.42629874 23.24767775 -8.125 16.5625 C-6.02873693 10.6929634 -3.12197779 5.38020839 0 0 Z " fill="#FAFCFB" transform="translate(784,683)"/>
<path d="M0 0 C2.9375 0.5625 2.9375 0.5625 4.51171875 2.33984375 C5.86277559 4.44601181 6.80088796 6.3538702 7.6875 8.6875 C8.02394531 9.55890625 8.36039063 10.4303125 8.70703125 11.328125 C9.11308594 12.39546875 9.51914062 13.4628125 9.9375 14.5625 C11.07917416 17.52244873 12.22687761 20.48004738 13.375 23.4375 C13.82734009 24.60502808 13.82734009 24.60502808 14.28881836 25.79614258 C16.41161456 31.25892677 18.61210654 36.68366838 20.89453125 42.08203125 C21.60642249 43.77510593 22.29294007 45.47901788 22.95703125 47.19140625 C24.9075617 51.9084261 27.48549415 55.96549659 31.9375 58.5625 C33.84463382 59.27898072 35.75232505 59.99403348 37.66357422 60.69946289 C41.53082234 62.16722348 45.32180419 63.81250169 49.125 65.4375 C56.67455607 68.64109693 64.26594967 71.66227975 71.9375 74.5625 C73.8358526 75.28508249 75.7318904 76.01379071 77.625 76.75 C78.41261719 77.05292969 79.20023438 77.35585938 80.01171875 77.66796875 C81.9375 78.5625 81.9375 78.5625 83.9375 80.5625 C83.6105244 83.17830479 83.11710932 85.20328137 81.9375 87.5625 C79.63671875 88.45703125 79.63671875 88.45703125 76.625 89.375 C70.2220599 91.4266463 64.11464438 93.91812696 57.9375 96.5625 C56.38330718 97.21602144 54.82857979 97.86827243 53.2734375 98.51953125 C51.5989451 99.2213226 49.92446596 99.92314557 48.25 100.625 C47.46616943 100.95338867 46.68233887 101.28177734 45.87475586 101.62011719 C43.55936043 102.59404757 41.2480734 103.57719071 38.9375 104.5625 C38.121604 104.90482666 37.30570801 105.24715332 36.46508789 105.59985352 C35.66965576 105.94072998 34.87422363 106.28160645 34.0546875 106.6328125 C33.34038574 106.93590332 32.62608398 107.23899414 31.89013672 107.55126953 C21.93023238 112.70929951 18.99861867 127.11444391 15.84375 136.9921875 C13.99124399 142.24627783 11.79640482 147.36954859 9.62890625 152.5 C8.63076603 154.86370072 7.70639283 157.20729722 6.83984375 159.625 C5.32238167 163.72411835 5.32238167 163.72411835 3.9375 165.5625 C0.1875 166.625 0.1875 166.625 -3.0625 166.5625 C-6.40705013 161.23599424 -8.63063663 155.75131748 -10.82421875 149.86328125 C-12.24891226 146.06559666 -13.79192904 142.32488625 -15.36328125 138.5859375 C-16.0625 136.5625 -16.0625 136.5625 -16.0625 133.5625 C-16.7225 133.5625 -17.3825 133.5625 -18.0625 133.5625 C-18.29324219 132.81226563 -18.52398438 132.06203125 -18.76171875 131.2890625 C-22.5917831 117.78971278 -22.5917831 117.78971278 -31.6640625 107.703125 C-36.30883569 105.49421006 -41.14206291 103.77236777 -45.98046875 102.04296875 C-50.54794767 100.40814615 -55.00220763 98.53560766 -59.46875 96.64453125 C-61.65317433 95.73325785 -63.84094045 94.87737533 -66.0625 94.0625 C-69.5487712 92.77537456 -72.99578701 91.40202797 -76.4375 90 C-77.96503906 89.37931641 -77.96503906 89.37931641 -79.5234375 88.74609375 C-82.0625 87.5625 -82.0625 87.5625 -84.0625 85.5625 C-84.4375 83.125 -84.4375 83.125 -84.0625 80.5625 C-81.43710263 78.23670636 -78.81337254 76.91219455 -75.55078125 75.68359375 C-71.77402934 74.22727157 -68.0247274 72.72863083 -64.29296875 71.16015625 C-63.3078833 70.74709229 -62.32279785 70.33402832 -61.30786133 69.90844727 C-59.79421997 69.27314087 -59.79421997 69.27314087 -58.25 68.625 C-50.73089748 65.47424216 -43.21323932 62.38496811 -35.55078125 59.59765625 C-29.9615516 57.27246652 -27.07776402 54.86520569 -24.0625 49.5625 C-23.36991771 47.57132592 -22.70502365 45.5703864 -22.0625 43.5625 C-21.41244658 42.26239317 -20.74444697 40.97116489 -20.0625 39.6875 C-18.01304651 35.72624288 -16.99538352 31.91595642 -16.0625 27.5625 C-15.4025 27.5625 -14.7425 27.5625 -14.0625 27.5625 C-13.88074219 26.51449219 -13.88074219 26.51449219 -13.6953125 25.4453125 C-13.52773438 24.53523438 -13.36015625 23.62515625 -13.1875 22.6875 C-13.02507812 21.78257812 -12.86265625 20.87765625 -12.6953125 19.9453125 C-12.0625 17.5625 -12.0625 17.5625 -10.0625 15.5625 C-9.5509663 13.97449704 -9.09954611 12.36667503 -8.6875 10.75 C-5.87436232 1.07896451 -5.87436232 1.07896451 0 0 Z " fill="#FAFCFB" transform="translate(787.0625,385.4375)"/>
<path d="M0 0 C2.88142203 2.88142203 2.25067416 4.89855502 2.25168228 8.93693352 C2.25458916 9.66262671 2.25749604 10.3883199 2.26049101 11.13600379 C2.26784968 13.5928571 2.26082046 16.04946522 2.25396729 18.50631714 C2.25626947 20.27570446 2.25944436 22.04509083 2.26342177 23.81447518 C2.27181317 28.69684983 2.26762475 33.57914684 2.26144934 38.46152186 C2.25694291 43.72027422 2.26389998 48.97901279 2.26940918 54.23776245 C2.27832759 64.55273134 2.27636935 74.8676712 2.2705839 85.18264125 C2.26607261 93.57296693 2.26545221 101.96328445 2.26763153 110.35361099 C2.267938 111.54652161 2.26824446 112.73943223 2.26856022 113.96849165 C2.26919967 116.39187796 2.26984809 118.81526427 2.2705054 121.23865058 C2.27621699 143.99851339 2.26964013 166.75836014 2.25890467 189.51822032 C2.24998903 209.02240888 2.25150315 228.5265736 2.26074219 248.03076172 C2.27146583 270.67962319 2.27564585 293.32847049 2.26951766 315.97733414 C2.26888058 318.39745784 2.26825184 320.81758153 2.26763153 323.23770523 C2.26732298 324.42839665 2.26701443 325.61908806 2.26669653 326.84586104 C2.26497432 335.21120774 2.26787489 343.57654542 2.27259064 351.94189072 C2.27822366 362.15938809 2.27663327 372.37685476 2.26602915 382.59434865 C2.26080168 387.80179261 2.25866504 393.00918555 2.26532745 398.21662903 C2.27135149 402.99789045 2.26790704 407.77905429 2.25737235 412.56030704 C2.25516508 414.27660691 2.25621319 415.99291528 2.26112393 417.70920955 C2.29333585 429.9183866 1.39935166 441.87209972 0 454 C-0.33 454 -0.66 454 -1 454 C-0.98839844 453.37351562 -0.97679687 452.74703125 -0.96484375 452.1015625 C-0.95582031 451.28429687 -0.94679688 450.46703125 -0.9375 449.625 C-0.92009766 448.40683594 -0.92009766 448.40683594 -0.90234375 447.1640625 C-0.85533666 444.95062858 -0.85533666 444.95062858 -2 443 C-2.09181738 440.65627135 -2.11533346 438.30980485 -2.11022377 435.96428394 C-2.10998884 435.2279425 -2.1097539 434.49160106 -2.10951185 433.73294625 C-2.10746957 431.24004896 -2.09820037 428.74722927 -2.08901978 426.25434875 C-2.08604404 424.45919919 -2.08350671 422.66404886 -2.08137262 420.86889809 C-2.07418692 415.91582805 -2.06068334 410.96279186 -2.04618168 406.00973856 C-2.03164168 400.67558193 -2.02285947 395.34141547 -2.01335144 390.00724792 C-1.99376176 379.54824722 -1.96871492 369.08926628 -1.9417484 358.63028226 C-1.91993277 350.13067838 -1.90007612 341.63107204 -1.88163376 333.13146019 C-1.87901163 331.92369473 -1.8763895 330.71592927 -1.87368792 329.47156486 C-1.86837047 327.01827605 -1.86305769 324.56498724 -1.85774951 322.11169841 C-1.80768232 299.07848658 -1.75146069 276.04529288 -1.69314377 253.01210066 C-1.64322623 233.2405793 -1.59850798 213.46905178 -1.55761719 193.69750977 C-1.51016945 170.75687917 -1.4595377 147.81625929 -1.40379179 124.87564725 C-1.39785646 122.42963772 -1.39192511 119.98362818 -1.38599777 117.53761864 C-1.38307939 116.33404152 -1.380161 115.1304644 -1.37715418 113.89041525 C-1.35679013 105.40174759 -1.33870463 96.91307682 -1.32149124 88.42440224 C-1.30044738 78.07807469 -1.27589851 67.73176255 -1.24684478 57.38545427 C-1.23210375 52.10470491 -1.21894381 46.82396416 -1.21003914 41.54320145 C-1.20184433 36.7102088 -1.18911724 31.87725022 -1.17275397 27.04427852 C-1.16762614 25.294566 -1.1641618 23.54484765 -1.16251679 21.79512838 C-1.16003417 19.41835396 -1.15150051 17.04167455 -1.14145851 14.66492176 C-1.14219533 13.98438794 -1.14293215 13.30385412 -1.1436913 12.60269806 C-1.11722486 8.29896725 -0.68868144 4.23583321 0 0 Z " fill="#40C06E" transform="translate(1092,405)"/>
<path d="M0 0 C0.33 0 0.66 0 1 0 C2.91544258 10.82633938 3.28470855 21.251362 3.25396729 32.20889282 C3.25627595 34.01653906 3.25945519 35.82418435 3.26342177 37.63182771 C3.2717218 42.56358644 3.26766652 47.49526713 3.26144934 52.42702603 C3.25690645 57.75888153 3.26391747 63.09072403 3.26940918 68.4225769 C3.27828344 78.85084909 3.27639048 89.27909241 3.2705839 99.70736571 C3.26606209 108.17954031 3.26545674 116.65170683 3.26763153 125.12388229 C3.267938 126.33088804 3.26824446 127.53789379 3.26856022 128.78147548 C3.26919967 131.23356308 3.2698481 133.68565068 3.2705054 136.13773827 C3.27620229 159.1050946 3.26965958 182.07243494 3.25890467 205.03978865 C3.24995837 224.75586318 3.25153131 244.47191417 3.26074219 264.18798828 C3.27143656 287.09021688 3.27566499 309.99243151 3.26951766 332.89466226 C3.26888056 335.33453329 3.26825182 337.77440432 3.26763153 340.21427536 C3.26732298 341.41473476 3.26701443 342.61519416 3.26669653 343.85203112 C3.26496793 352.32121451 3.26788799 360.79038905 3.27259064 369.25957108 C3.2781897 379.56946145 3.27670312 389.87932136 3.26602915 400.18920822 C3.26076104 405.45146055 3.25873519 410.71366201 3.26532745 415.975914 C3.27126479 420.78793359 3.26804867 425.59985491 3.25737235 430.41186552 C3.25512902 432.15713153 3.25629534 433.90240576 3.26112393 435.64766653 C3.26716399 438.01114462 3.26100993 440.3742815 3.25168228 442.73774147 C3.25135758 444.05309808 3.25103287 445.3684547 3.25069833 446.7236706 C3.01764693 449.76937561 2.61880559 451.45715099 1 454 C1.00037972 453.0760807 1.00075944 452.1521614 1.00115067 451.20024455 C1.02354518 396.49632362 1.04067541 341.79240313 1.05106533 287.08847854 C1.0523161 280.52675913 1.05361042 273.96503972 1.05493164 267.40332031 C1.05519395 266.09694628 1.05545626 264.79057224 1.05572652 263.44461112 C1.06008321 242.26485341 1.06797075 221.0850984 1.0771528 199.9053423 C1.08648937 178.1887545 1.09205562 156.47216812 1.09408849 134.7555784 C1.09546371 121.34475736 1.09981425 107.93394396 1.10791647 94.52312528 C1.11318397 85.33901732 1.11480428 76.15491335 1.11350138 66.97080399 C1.11285801 61.66435274 1.11387543 56.35791488 1.11920547 51.05146599 C1.12404242 46.20077896 1.12433668 41.35011443 1.12089889 36.49942641 C1.1204735 34.73762544 1.12176674 32.97582312 1.12488318 31.21402486 C1.12885269 28.83295064 1.12675988 26.45195935 1.12304783 24.07088661 C1.12698835 23.02711922 1.12698835 23.02711922 1.13100848 21.96226561 C1.15754852 18.35911427 1.15754852 18.35911427 0 15 C-0.0716735 12.44842345 -0.09308442 9.92527029 -0.0625 7.375 C-0.05798828 6.66859375 -0.05347656 5.9621875 -0.04882812 5.234375 C-0.03703875 3.48954725 -0.01910324 1.744763 0 0 Z " fill="#ECFAF2" transform="translate(1092,390)"/>
<path d="M0 0 C4.95 0.33 9.9 0.66 15 1 C15 0.67 15 0.34 15 0 C16.45892004 0.11795524 17.91711177 0.24491151 19.375 0.375 C20.59316406 0.47941406 20.59316406 0.47941406 21.8359375 0.5859375 C25 1 25 1 26.92034662 1.46814573 C35.02115241 3.41080123 43.11365343 3.28987468 51.38809204 3.2784729 C53.0466455 3.28348151 54.70519652 3.28935896 56.36374414 3.29602563 C60.90179279 3.31177119 65.43977944 3.31525331 69.97785211 3.31667423 C74.87889878 3.32037781 79.77991181 3.33553806 84.68093872 3.34928894 C93.16584544 3.37153553 101.65074016 3.38656445 110.13566971 3.39665604 C122.40336782 3.41125716 134.67102409 3.43679803 146.93869762 3.46498732 C166.843398 3.51042925 186.74810441 3.54705481 206.65283203 3.578125 C225.9855251 3.60832118 245.31820341 3.64267638 264.65087891 3.68261719 C265.8430499 3.68507874 267.0352209 3.68754028 268.26351829 3.69007643 C274.24444059 3.70245124 280.22536272 3.71490773 286.20628476 3.72740483 C335.80416924 3.83093371 385.40207213 3.92014981 435 4 C435 4.33 435 4.66 435 5 C384.29824002 5.06882212 333.59648481 5.12160771 282.89468723 5.15319599 C276.89479792 5.15694764 270.8949087 5.16083066 264.89501953 5.16479492 C263.70066171 5.16558185 262.50630388 5.16636878 261.27575339 5.16717956 C241.9934245 5.18019668 222.71112273 5.20382993 203.42880987 5.23145839 C183.61050921 5.25961581 163.79222266 5.27619799 143.97390282 5.28226548 C131.76694404 5.2863606 119.56006193 5.29924528 107.35312678 5.3237494 C98.95700462 5.33973453 90.56092149 5.34437181 82.16478525 5.34050413 C77.33683103 5.33860223 72.5090098 5.34129989 67.68107986 5.35761642 C50.2816137 5.41342874 32.9957983 5.33658183 15.66824341 3.60371399 C14.41674338 3.47894847 13.16524336 3.35418295 11.87581909 3.22563666 C3.41276528 2.27517685 3.41276528 2.27517685 0 0 Z " fill="#69D598" transform="translate(393,1098)"/>
<path d="M0 0 C4.95 0.33 9.9 0.66 15 1 C15 0.67 15 0.34 15 0 C16.45892004 0.11795524 17.91711177 0.24491151 19.375 0.375 C20.59316406 0.47941406 20.59316406 0.47941406 21.8359375 0.5859375 C24.44645279 0.92756049 26.87798228 1.42317684 29.43832397 2.00595093 C35.36097528 3.19667717 41.12536564 3.30686367 47.15087891 3.31884766 C48.90871201 3.33391609 48.90871201 3.33391609 50.70205688 3.34928894 C54.54355415 3.37997499 58.38498218 3.39711558 62.2265625 3.4140625 C64.90270984 3.43278588 67.57884102 3.45226572 70.25497437 3.4727478 C76.55865021 3.51934567 82.86234292 3.55618101 89.16610181 3.58942068 C96.34883926 3.62777715 103.53148814 3.67715139 110.71415067 3.72740483 C125.47603184 3.83044179 140.23797669 3.91979308 155 4 C155 4.33 155 4.66 155 5 C139.61133463 5.07079584 124.22268179 5.12332727 108.83389091 5.15543652 C101.68494016 5.17075674 94.53609188 5.19155296 87.38720703 5.22631836 C81.13969563 5.25668525 74.89225855 5.275682 68.64467537 5.28226548 C65.3516139 5.28609993 62.05880843 5.29648041 58.76580429 5.31719017 C44.54133458 5.40292558 30.48910586 4.99888532 16.33642578 3.60668945 C15.04497587 3.48174449 13.75352596 3.35679953 12.42294121 3.22806835 C3.38974159 2.25982772 3.38974159 2.25982772 0 0 Z " fill="#66CE92" transform="translate(393,1098)"/>
<path d="M0 0 C0.33 0 0.66 0 1 0 C2.96307327 10.97198113 3.26598703 21.54131594 3.1953125 32.6484375 C3.19157219 34.39962602 3.18873004 36.15081667 3.18673706 37.90200806 C3.17918066 42.46230064 3.15960306 47.02246137 3.1373291 51.58270264 C3.11669624 56.25563779 3.10769844 60.92859471 3.09765625 65.6015625 C3.07634781 74.73443224 3.04231122 83.86720506 3 93 C2.67 93 2.34 93 2 93 C1.98969254 92.05230743 1.97938507 91.10461487 1.96876526 90.12820435 C1.87114208 81.21077881 1.76841866 72.29342479 1.66066074 63.3761158 C1.60542224 58.79129595 1.55200075 54.20646973 1.50268555 49.62158203 C1.45505568 45.19952607 1.40271337 40.77754901 1.34705925 36.35558701 C1.32662945 34.66586133 1.30791741 32.976114 1.29092598 31.28635025 C1.26689578 28.92535808 1.23683944 26.56451567 1.20532227 24.20361328 C1.19668907 23.14841492 1.19668907 23.14841492 1.18788147 22.07189941 C1.17511443 18.41246722 1.17511443 18.41246722 0 15 C-0.0716735 12.44842345 -0.09308442 9.92527029 -0.0625 7.375 C-0.05798828 6.66859375 -0.05347656 5.9621875 -0.04882812 5.234375 C-0.03703875 3.48954725 -0.01910324 1.744763 0 0 Z " fill="#ECF9F2" transform="translate(1092,390)"/>
<path d="M0 0 C0.66 0.33 1.32 0.66 2 1 C-4.03076923 5.92307692 -4.03076923 5.92307692 -8.9375 6.3125 C-9.948125 6.209375 -10.95875 6.10625 -12 6 C-12 6.66 -12 7.32 -12 8 C-13.42913847 8.72505558 -14.86870658 9.42958435 -16.3125 10.125 C-17.11300781 10.51945313 -17.91351562 10.91390625 -18.73828125 11.3203125 C-19.48464844 11.54460938 -20.23101563 11.76890625 -21 12 C-21.99 11.34 -22.98 10.68 -24 10 C-23.40574219 9.76925781 -22.81148437 9.53851562 -22.19921875 9.30078125 C-16.49528411 7.05646482 -10.90624281 4.63412436 -5.34765625 2.05078125 C-3 1 -3 1 0 0 Z " fill="#53C87C" transform="translate(842,781)"/>
<path d="M0 0 C4.95 0.33 9.9 0.66 15 1 C15 0.67 15 0.34 15 0 C20.36891879 0.49869404 25.69235173 1.02227532 31 2 C31 2.33 31 2.66 31 3 C20.42308574 3.21367504 10.41755521 3.06142435 0 1 C0 0.67 0 0.34 0 0 Z " fill="#53C07C" transform="translate(393,1098)"/>
<path d="M0 0 C-1.26287168 3.90342155 -3.13072158 6.32904049 -5.83203125 9.37890625 C-7.70103581 11.97300957 -8.21954889 14.93823026 -9 18 C-9.66 18.33 -10.32 18.66 -11 19 C-7.44334975 0 -7.44334975 0 0 0 Z " fill="#4DC377" transform="translate(818,792)"/>
<path d="M0 0 C0.73605469 0.00451172 1.47210938 0.00902344 2.23046875 0.01367188 C4.02868158 0.02534858 5.82685197 0.04327989 7.625 0.0625 C7.625 0.3925 7.625 0.7225 7.625 1.0625 C1.36203567 2.75682851 -4.8762431 3.86018135 -11.375 3.0625 C-12.365 2.4025 -13.355 1.7425 -14.375 1.0625 C-9.51770355 0.08950844 -4.9249375 -0.05788805 0 0 Z " fill="#108333" transform="translate(420.375,146.9375)"/>
<path d="M0 0 C0.66 0.33 1.32 0.66 2 1 C-0.78337063 4.60807304 -3.78116354 7.78116354 -7 11 C-9.03489124 13.30428582 -11.02467774 15.64454699 -13 18 C-13.33 17.34 -13.66 16.68 -14 16 C-9.59802297 10.34669955 -5.19861358 4.9386829 0 0 Z " fill="#258C41" transform="translate(238,234)"/>
<path d="M0 0 C0.33 0 0.66 0 1 0 C2.61693023 9.4994651 3.26349633 18.36774517 3 28 C2.67 28 2.34 28 2 28 C1.93941406 27.22914063 1.87882812 26.45828125 1.81640625 25.6640625 C1.73261719 24.66117187 1.64882812 23.65828125 1.5625 22.625 C1.48128906 21.62726563 1.40007812 20.62953125 1.31640625 19.6015625 C1.15034374 17.02072387 1.15034374 17.02072387 0 15 C-0.0716735 12.44842345 -0.09308442 9.92527029 -0.0625 7.375 C-0.05798828 6.66859375 -0.05347656 5.9621875 -0.04882812 5.234375 C-0.03703875 3.48954725 -0.01910324 1.744763 0 0 Z " fill="#BDE9CD" transform="translate(1092,390)"/>
<path d="M0 0 C0.33 0 0.66 0 1 0 C1.3690205 11.52164009 1.3690205 11.52164009 -1 17 C-1.33 17 -1.66 17 -2 17 C-1.85978195 14.35375716 -1.71310224 11.70815422 -1.5625 9.0625 C-1.52318359 8.30775391 -1.48386719 7.55300781 -1.44335938 6.77539062 C-1.11328125 1.11328125 -1.11328125 1.11328125 0 0 Z " fill="#A7E7BF" transform="translate(1090,864)"/>
<path d="M0 0 C7.42857143 -0.28571429 7.42857143 -0.28571429 11 2 C11 2.66 11 3.32 11 4 C12.32 4.33 13.64 4.66 15 5 C13 6 13 6 10.72265625 5.29296875 C9.84480469 4.92816406 8.96695313 4.56335938 8.0625 4.1875 C7.18722656 3.83042969 6.31195312 3.47335937 5.41015625 3.10546875 C3 2 3 2 0 0 Z " fill="#5EC684" transform="translate(840,751)"/>
<path d="M0 0 C-5.02416822 3.34944548 -9.09951257 3.09834146 -15 3 C-15 2.67 -15 2.34 -15 2 C-13.06524329 1.46906676 -11.12706845 0.95057683 -9.1875 0.4375 C-8.10855469 0.14746094 -7.02960937 -0.14257812 -5.91796875 -0.44140625 C-3 -1 -3 -1 0 0 Z " fill="#67D492" transform="translate(867,1097)"/>
<path d="M0 0 C0.66 0.33 1.32 0.66 2 1 C1.88637738 2.4800841 1.75877092 3.95910074 1.625 5.4375 C1.52058594 6.67306641 1.52058594 6.67306641 1.4140625 7.93359375 C1.27742187 8.61550781 1.14078125 9.29742187 1 10 C0.01 10.495 0.01 10.495 -1 11 C-1.0270043 9.54176788 -1.04639787 8.08339325 -1.0625 6.625 C-1.07410156 5.81289063 -1.08570313 5.00078125 -1.09765625 4.1640625 C-1 2 -1 2 0 0 Z " fill="#0D832E" transform="translate(167,381)"/>
<path d="M0 0 C0.66 0.33 1.32 0.66 2 1 C0.92892883 1.86949317 -0.15745944 2.72014205 -1.25 3.5625 C-1.85328125 4.03816406 -2.4565625 4.51382813 -3.078125 5.00390625 C-5 6 -5 6 -7.234375 5.65234375 C-7.81703125 5.43707031 -8.3996875 5.22179687 -9 5 C-3.375 1.125 -3.375 1.125 0 0 Z " fill="#49C174" transform="translate(842,781)"/>
<path d="M0 0 C1.43836751 0.11458693 2.87570966 0.24209116 4.3125 0.375 C5.51326172 0.47941406 5.51326172 0.47941406 6.73828125 0.5859375 C9 1 9 1 12 3 C12 3.66 12 4.32 12 5 C10.37276701 4.54965877 8.74826336 4.08944646 7.125 3.625 C5.76761719 3.24214844 5.76761719 3.24214844 4.3828125 2.8515625 C2 2 2 2 0 0 Z " fill="#58C17E" transform="translate(855,757)"/>
<path d="M0 0 C-1.33333333 0.66666667 -2.66666667 1.33333333 -4 2 C-4.66 2.391875 -5.32 2.78375 -6 3.1875 C-8.42863035 4.17413108 -9.57447091 3.86626039 -12 3 C-8.40198016 -0.59801984 -4.84291279 -0.09137571 0 0 Z " fill="#118131" transform="translate(386,152)"/>
<path d="M0 0 C1.12377697 3.30435084 0.89554742 5.0506862 -0.4375 8.25 C-0.72496094 8.95640625 -1.01242187 9.6628125 -1.30859375 10.390625 C-1.53675781 10.92171875 -1.76492188 11.4528125 -2 12 C-2.66 12 -3.32 12 -4 12 C-2.66666667 8 -1.33333333 4 0 0 Z " fill="#C3EBD4" transform="translate(766,724)"/>
<path d="M0 0 C-2.39509338 2.89932357 -4.31245243 3.50168276 -8 4 C-8.33 3.01 -8.66 2.02 -9 1 C-5.8035914 -0.06546953 -3.34252724 -0.07427838 0 0 Z " fill="#168835" transform="translate(369,156)"/>
<path d="M0 0 C-0.66 0 -1.32 0 -2 0 C-2 0.66 -2 1.32 -2 2 C-3.98 2 -5.96 2 -8 2 C-8.33 2.66 -8.66 3.32 -9 4 C-9.66 3.34 -10.32 2.68 -11 2 C-3.57142857 -1.57142857 -3.57142857 -1.57142857 0 0 Z " fill="#4AB971" transform="translate(652,663)"/>
<path d="M0 0 C0.66 0.33 1.32 0.66 2 1 C1.34 2.32 0.68 3.64 0 5 C0.99 5.33 1.98 5.66 3 6 C3.33 6.99 3.66 7.98 4 9 C2.0625 8.3125 2.0625 8.3125 0 7 C-0.93580311 4.12060581 -1.37245106 2.74490212 0 0 Z " fill="#DEF3E6" transform="translate(704,763)"/>
<path d="M0 0 C0.556875 0.226875 1.11375 0.45375 1.6875 0.6875 C-1.125 2.25 -1.125 2.25 -4.3125 3.6875 C-5.3025 3.3575 -6.2925 3.0275 -7.3125 2.6875 C-2.88173077 -0.38942308 -2.88173077 -0.38942308 0 0 Z " fill="#189144" transform="translate(507.3125,574.3125)"/>
</svg>
